<svg width="16" height="16" viewBox="0 0 16 16" fill="none" xmlns="http://www.w3.org/2000/svg">
<path fill-rule="evenodd" clip-rule="evenodd" d="M8.00004 3.33333C7.77366 3.07256 7.50974 2.84486 7.21858 2.65493C6.57515 2.23522 5.79866 2 5.00004 2C2.94671 2 1.33337 3.58256 1.33337 5.59673C1.33337 6.3124 1.50387 6.99201 1.79593 7.63856C2.70178 9.64573 4.77721 11.3395 6.56371 12.7975C7.07804 13.2173 7.56842 13.6175 8.00004 14C8.43167 13.6175 8.92205 13.2173 9.43638 12.7975C11.2228 11.3396 13.2982 9.64579 14.2041 7.63867C14.4962 6.99208 14.6667 6.31244 14.6667 5.59673C14.6667 3.58256 13.0534 2 11 2C10.2014 2 9.42493 2.23522 8.7815 2.65493C8.49034 2.84486 8.22643 3.07256 8.00004 3.33333ZM8.00004 12.2466C8.21523 12.0683 8.4352 11.8884 8.65482 11.7089C8.84086 11.5568 9.02665 11.4049 9.20909 11.2542C9.93941 10.6513 10.6543 10.0387 11.2873 9.39669C12.0707 8.60222 12.6529 7.83755 12.992 7.08279C13.2155 6.58447 13.3334 6.09088 13.3334 5.59673C13.3334 4.34303 12.3413 3.33333 11 3.33333C10.2078 3.33333 9.46839 3.67582 9.0069 4.20741L8.00004 5.36723L6.99318 4.20741C6.5317 3.67582 5.79233 3.33333 5.00004 3.33333C3.65876 3.33333 2.66671 4.34303 2.66671 5.59673C2.66671 6.09088 2.78453 6.58447 3.00813 7.08279C3.34717 7.83755 3.92939 8.60222 4.71277 9.39669C5.3458 10.0387 6.06067 10.6513 6.79099 11.2542C6.97343 11.4049 7.15922 11.5568 7.34526 11.7089C7.56489 11.8884 7.78485 12.0683 8.00004 12.2466Z" fill="white"/>
</svg>
