<svg width="21" height="21" viewBox="0 0 21 21" fill="none" xmlns="http://www.w3.org/2000/svg">
<path d="M7.96965 17.8095V15.2539C7.96963 14.6039 8.49956 14.0757 9.15614 14.0713H11.5612C12.2209 14.0713 12.7557 14.6008 12.7557 15.2539V15.2539V17.8175C12.7556 18.3694 13.2005 18.8204 13.7578 18.8334H15.3612C16.9596 18.8334 18.2553 17.5506 18.2553 15.9682V15.9682V8.69822C18.2468 8.07571 17.9515 7.49114 17.4536 7.11088L11.9701 2.73777C11.0094 1.97633 9.6438 1.97633 8.68315 2.73777L3.22365 7.11882C2.72385 7.49754 2.42812 8.08308 2.42197 8.70615V15.9682C2.42197 17.5506 3.7177 18.8334 5.31606 18.8334H6.91943C7.49059 18.8334 7.95361 18.375 7.95361 17.8095V17.8095" stroke="#282F65" stroke-width="2" stroke-linecap="round" stroke-linejoin="round"/>
</svg>
